<svg height="512pt" viewBox="-3 0 512 512" width="512pt" xmlns="http://www.w3.org/2000/svg"><path d="m395.683594 290.132812c-13.613282.023438-27.105469 2.566407-39.792969 7.5-16.078125-6.074218-32.953125-9.785156-50.097656-11.015624-14.871094-4.769532-25.585938-17.773438-27.425781-33.28125 3.292968-3.859376 6.878906-7.464844 10.726562-10.777344 24.992188-21.332032 24.277344-41.8125 23.355469-59.929688 15.207031-6.792968 26.613281-19.980468 31.144531-36.007812 1.871094-11.273438 4.574219-38.042969-10.726562-43.113282-4.371094-1.433593-9.074219-1.523437-13.5-.261718 0-7.757813-.144532-16.605469-.664063-26.898438-2.953125-57.574218-63.257813-75.109375-95.0625-76.347656h-13.652344c-31.472656 1.230469-91.765625 18.773438-94.71875 76.355469-.53125 10.292969-.71875 19.132812-.667969 26.890625-4.375-1.253906-9.023437-1.164063-13.34375.253906-15.4375 5.0625-12.800781 31.832031-10.890624 43.519531 4.667968 15.859375 16.050781 28.878907 31.148437 35.621094-.921875 18.105469-1.628906 38.570313 23.355469 59.929687 3.851562 3.308594 7.4375 6.914063 10.726562 10.785157-1.847656 15.511719-12.574218 28.515625-27.453125 33.277343-32.101562 1.9375-74.828125 15.363282-99.429687 41.578126-19.046875 20.300781-28.714844 50.046874-28.714844 88.394531 0 94.3125 208.128906 95.394531 216.992188 95.394531 41.480468-.46875 82.785156-5.515625 123.15625-15.054688 40.355468 23.394532 91.039062 19.027344 126.796874-10.921874 35.761719-29.953126 48.957032-79.082032 33.007813-122.917969-15.949219-43.835938-57.625-73-104.269531-72.972657zm-178.65625 115.378907c-6.765625-5.597657-13.003906-11.09375-18.652344-16.398438l15.546875-31.027343c2.046875.421874 4.15625.421874 6.203125 0l15.539062 31.085937c-5.613281 5.238281-11.835937 10.707031-18.636718 16.339844zm8.535156-72.710938c0 4.710938-3.820312 8.53125-8.535156 8.53125-4.710938 0-8.53125-3.820312-8.53125-8.53125v-17.066406h17.066406zm22.851562 43.699219-12.988281-25.976562c4.597657-4.753907 7.171875-11.109376 7.167969-17.722657v-14.132812c16.953125-2.707031 33.714844-6.496094 50.183594-11.347657-4.144532 13.875-15.171875 38.457032-44.398438 69.179688zm78.242188-256.980469c1.722656 7.863281 1.800781 15.996094.222656 23.890625-2.515625 7.773438-7.507812 14.507813-14.210937 19.175782.445312-3.464844 1.09375-6.828126 1.863281-10.660157 2.105469-9.789062 3.507812-19.71875 4.199219-29.710937 2.246093-1.773438 5.03125-2.722656 7.890625-2.695313zm-219.476562 24.34375c-1.636719-8.042969-1.554688-16.339843.246093-24.34375 2.859375-.050781 5.648438.890625 7.894531 2.660157.691407 9.992187 2.089844 19.921874 4.1875 29.714843.769532 3.820313 1.417969 7.210938 1.871094 10.675781-6.605468-4.574218-11.589844-11.121093-14.234375-18.707031zm31.453124 38.964844c.085938-1.640625.101563-3.339844.171876-5.003906.027343-.421875.027343-.847657 0-1.269531.058593-1.824219.175781-3.609376.175781-5.476563-.105469-7.59375-1.039063-15.15625-2.78125-22.546875-2.21875-10.269531-3.605469-20.699219-4.144531-31.1875v-.136719c-.609376-13.320312-.519532-26.664062.273437-39.972656 2.890625-56.378906 75.269531-60.046875 78-60.167969h12.980469c3.070312.128906 75.46875 3.796875 78.34375 60.175782.792968 13.332031.882812 26.691406.273437 40.03125-.539062 10.507812-1.929687 20.949218-4.15625 31.230468-1.734375 7.394532-2.667969 14.953125-2.78125 22.546875 0 1.867188.121094 3.652344.1875 5.476563-.023437.425781-.007812.851562.042969 1.273437.070312 1.707031.078125 3.363281.164062 5 .902344 17.765625 1.550782 30.601563-17.367187 46.773438-5.652344 4.890625-10.828125 10.3125-15.453125 16.1875l-.207031.246093c-2.804688 3.507813-5.3125 6.886719-7.507813 9.925782-8.867187 12.175781-12.917968 17.132812-24.550781 17.132812h-26.613281c-11.632813 0-15.6875-4.957031-24.507813-17.167968-2.195312-3.03125-4.703125-6.410157-7.503906-9.90625l-.21875-.285157c-4.640625-5.847656-9.824219-11.242187-15.480469-16.109375-18.925781-16.171875-18.269531-29.003906-17.375-46.769531zm29.722657 87.148437c7.292969 12.585938 20.78125 20.28125 35.328125 20.15625h26.621094c14.554687.136719 28.058593-7.5625 35.355468-20.15625 3.296875 8.792969 8.761719 16.605469 15.886719 22.714844l-.476563.136719c-2.996093.8125-6.238281 1.707031-9.632812 2.511719l-1.332031.332031c-3.414063.851563-7.003907 1.707031-10.667969 2.484375l-1.339844.289062c-3.820312.851563-7.679687 1.585938-11.636718 2.269532l-.855469.160156c-2.449219.421875-4.863281.71875-7.296875 1.070312-2.328125-2.132812-5.375-3.3125-8.53125-3.3125h-25.601563c-3.15625 0-6.199219 1.179688-8.53125 3.3125-14.597656-2.210937-29.046875-5.296874-43.273437-9.242187 7.152344-6.105469 12.640625-13.925781 15.949218-22.726563zm23.039062 48.691407v14.132812c.003907 6.617188 2.582031 12.972657 7.191407 17.722657l-12.976563 25.949218c-29.203125-30.71875-40.242187-55.320312-44.375-69.117187 16.460937 4.835937 33.214844 8.617187 50.160156 11.3125zm25.597657 176.265625c-55.609376 0-199.925782-14.070313-199.925782-78.328125 0-33.867188 8.105469-59.683594 24.097656-76.714844 19.628907-20.933594 54.460938-32.734375 81.597657-35.726563 3.148437 15.554688 15 49.558594 58.605469 92.320313.050781.058594.121093.109375.171874.171875 9.585938 9.371094 19.640626 18.253906 30.121094 26.613281.34375.214844.703125.398438 1.074219.554688.390625.242187.800781.453125 1.222656.632812.71875.265625 1.472657.429688 2.234375.496094.273438 0 .53125.175781.8125.175781.144532 0 .296875-.066406.449219-.074218.449219-.042969.894531-.117188 1.332031-.222657.550782-.113281 1.089844-.285156 1.605469-.503906.433594-.199219.847656-.429687 1.246094-.691406.230469-.152344.496093-.222657.714843-.402344 11.308594-9.113281 21.335938-17.917969 29.699219-26.128906 44.125-43.015625 55.984375-77.292969 59.175781-92.941407 7.851563.90625 15.621094 2.402344 23.246094 4.46875-28.710937 18.933594-46.984375 50.144532-49.441406 84.449219-2.457031 34.304688 11.183594 67.800781 36.90625 90.628907-34.566406 6.925781-69.695312 10.679687-104.945312 11.222656zm178.691406 0c-17.4375-.011719-34.523438-4.910156-49.316406-14.148438-.296876-.207031-.601563-.394531-.921876-.5625-29.4375-18.621094-46.121093-52.03125-43.324218-86.753906 2.800781-34.71875 24.621094-65.027344 56.664062-78.691406.425782-.128906.839844-.292969 1.234375-.496094 35.097657-14.464844 75.449219-6.367188 102.25 20.515625 26.796875 26.882813 34.769531 67.257813 20.195313 102.308594-14.574219 35.050781-48.824219 57.871093-86.78125 57.828125zm0 0"/><path d="m420.0625 368.152344c0 4.714844 3.820312 8.535156 8.53125 8.535156 4.714844 0 8.535156-3.820312 8.535156-8.535156-.03125-19.585938-13.75-36.492188-32.914062-40.550782v-3.335937c0-4.710937-3.820313-8.53125-8.53125-8.53125-4.714844 0-8.535156 3.820313-8.535156 8.53125v3.335937c-19.152344 4.050782-32.859376 20.957032-32.859376 40.535157s13.707032 36.484375 32.859376 40.53125v48.042969c-9.507813-3.542969-15.820313-12.609376-15.847657-22.757813 0-4.710937-3.820312-8.53125-8.53125-8.53125-4.714843 0-8.535156 3.820313-8.535156 8.53125.019531 19.601563 13.742187 36.515625 32.914063 40.578125v3.335938c0 4.710937 3.820312 8.53125 8.535156 8.53125 4.710937 0 8.53125-3.820313 8.53125-8.53125v-3.335938c19.15625-4.050781 32.859375-20.957031 32.859375-40.535156s-13.703125-36.484375-32.859375-40.53125v-48.042969c9.5 3.539063 15.8125 12.59375 15.847656 22.730469zm-48.761719 0c.027344-10.144532 6.339844-19.210938 15.847657-22.757813v45.515625c-9.503907-3.542968-15.816407-12.609375-15.847657-22.757812zm48.761719 65.828125c-.027344 10.144531-6.339844 19.214843-15.847656 22.757812v-45.515625c9.507812 3.546875 15.820312 12.613282 15.847656 22.757813zm0 0"/></svg>